<svg width="80" height="82" viewBox="0 0 80 82" fill="none" xmlns="http://www.w3.org/2000/svg">
<g clip-path="url(#clip0_59_2)">
<path d="M45.9946 42.6553L42.2397 38.8062C42.838 37.6626 43.3226 36.4638 43.6884 35.2214H48.9988C49.8914 35.2214 50.615 34.4796 50.615 33.5649V25.47C50.615 24.5551 49.8912 23.8135 48.9988 23.8135H43.6884C43.3226 22.5711 42.838 21.3723 42.2395 20.2289L45.9946 16.3796C46.626 15.7328 46.626 14.6839 45.9946 14.037L40.4105 8.31327C39.7797 7.6661 38.7558 7.6661 38.125 8.31327L34.3698 12.1623C33.2541 11.5488 32.0846 11.0521 30.8725 10.6772V5.23371C30.8725 4.31874 30.1487 3.57715 29.2563 3.57715H21.3589C20.4663 3.57715 19.7428 4.31901 19.7428 5.23371V10.6769C18.5306 11.0518 17.3611 11.5485 16.2457 12.162L12.4908 8.31299C12.1875 8.00211 11.7764 7.82762 11.3479 7.82762C10.9193 7.82762 10.5083 8.00211 10.2053 8.31272L4.62034 14.0364C3.98896 14.6836 3.98896 15.7325 4.62007 16.3794L8.37522 20.2287C7.7767 21.3723 7.29212 22.5711 6.92633 23.8132H1.61616C0.723502 23.8132 0 24.5551 0 25.4698V33.5643C0 34.4793 0.723771 35.2209 1.61616 35.2209H6.92633C7.29212 36.463 7.7767 37.6618 8.37522 38.8057L4.62034 42.6547C3.98896 43.3016 3.98896 44.3505 4.62034 44.9974L10.2044 50.7211C10.835 51.368 11.8589 51.3682 12.49 50.7214L16.2451 46.8726C17.3611 47.4861 18.5306 47.9828 19.7425 48.3577V53.8009C19.7425 54.7159 20.4663 55.4575 21.3587 55.4575H29.2558C30.1484 55.4575 30.8719 54.7156 30.8719 53.8009V48.358C32.0838 47.983 33.2533 47.4864 34.369 46.8729L38.1244 50.7219C38.7553 51.3685 39.7791 51.3688 40.41 50.7216L45.9941 44.9979C46.626 44.351 46.626 43.3021 45.9946 42.6553ZM25.3075 35.7098C21.9763 35.7098 19.266 32.9318 19.266 29.5173C19.266 26.1026 21.9763 23.3248 25.3075 23.3248C28.6387 23.3248 31.349 26.1026 31.349 29.5173C31.349 32.9318 28.6387 35.7098 25.3075 35.7098Z" fill="white"/>
<path d="M79.9727 58.6972L78.9562 53.0489C78.8783 52.6165 78.6362 52.2341 78.2833 51.9845C77.9302 51.7355 77.496 51.6402 77.0736 51.72L73.7061 52.357C73.3723 51.7313 72.9942 51.1333 72.5737 50.5657L74.5155 47.6747C74.7585 47.3127 74.8514 46.8668 74.7736 46.4347C74.6957 46.0027 74.4536 45.62 74.1007 45.3707L69.4849 42.1133C68.7501 41.5954 67.7435 41.7848 67.2371 42.5385L65.2956 45.4292C64.6278 45.229 63.9482 45.0802 63.2592 44.9841L62.6378 41.5324C62.4759 40.6326 61.6315 40.0368 60.7552 40.2038L55.2447 41.2458C54.8228 41.3256 54.4498 41.5738 54.2063 41.9355C53.9633 42.2975 53.8704 42.7434 53.9482 43.1754L54.5696 46.6272C53.9593 46.9693 53.3758 47.3569 52.822 47.7879L50.0016 45.7975C49.6484 45.5488 49.214 45.4532 48.7916 45.533C48.3701 45.6128 47.9967 45.861 47.7535 46.2227L44.5756 50.9539C44.3326 51.3158 44.2397 51.7617 44.3175 52.1941C44.3954 52.6262 44.6375 53.0088 44.9904 53.2581L47.8106 55.2482C47.6153 55.9324 47.4701 56.6292 47.3764 57.3355L44.0086 57.9724C43.587 58.0522 43.2137 58.3004 42.9705 58.6621C42.7275 59.0241 42.6346 59.47 42.7124 59.9021L43.7292 65.5504C43.8914 66.4502 44.7353 67.0466 45.6121 66.879L48.9796 66.242C49.3131 66.8674 49.6918 67.4657 50.112 68.0333L48.1705 70.924C47.9272 71.286 47.8343 71.7319 47.9121 72.164C47.99 72.5961 48.2321 72.9787 48.585 73.228L53.2008 76.4854C53.9353 77.0033 54.9422 76.8139 55.4486 76.0602L57.3901 73.1695C58.0576 73.3699 58.7375 73.5185 59.4265 73.6148L60.0479 77.0666C60.1915 77.8648 60.8711 78.4227 61.6355 78.4227C61.7327 78.4227 61.8316 78.4139 61.9305 78.3949L67.441 77.3529C67.8629 77.2731 68.2359 77.0249 68.4794 76.6632C68.7224 76.3012 68.8153 75.8553 68.7375 75.4233L68.116 71.9715C68.7264 71.6294 69.3099 71.2418 69.8634 70.8108L72.6839 72.8012C73.0367 73.05 73.4707 73.1447 73.8936 73.0657C74.3151 72.9859 74.6884 72.7377 74.9317 72.376L78.1096 67.6449C78.6157 66.8911 78.4301 65.8599 77.6948 65.3408L74.8746 63.3508C75.0701 62.6666 75.215 61.9697 75.309 61.2635L78.6766 60.6265C79.5544 60.4606 80.1349 59.5967 79.9727 58.6972ZM64.4875 61.5189C63.2937 63.2958 60.9125 63.7467 59.1779 62.523C57.444 61.2991 57.0047 58.8579 58.1985 57.0807C58.7768 56.2198 59.6474 55.6414 60.6502 55.4514C60.8837 55.4073 61.1181 55.3854 61.3508 55.3854C62.1166 55.3854 62.8638 55.6221 63.5078 56.0768C65.2414 57.2999 65.6808 59.7414 64.4875 61.5189Z" fill="white"/>
</g>
<defs>
<clipPath id="clip0_59_2">
<rect width="80" height="82" fill="white"/>
</clipPath>
</defs>
</svg>
