<svg width="82" height="80" viewBox="0 0 82 80" fill="none" xmlns="http://www.w3.org/2000/svg">
<path d="M41.4356 13.3125L29.0331 25.5625C26.9703 27.5938 26.5731 31.25 28.1362 33.8594C29.7891 36.6406 33.005 37.1875 35.2216 35.0781L47.9444 23.0156C48.8413 22.1719 50.1225 22.3594 50.8272 23.4531C51.5319 24.5469 51.3653 26.1094 50.4684 26.9688L47.7906 29.5L65.6 49.5V20H65.5103L65.0106 19.6094L55.7087 12.3438C53.7484 10.8125 51.455 10 49.1231 10C46.33 10 43.6137 11.1719 41.4356 13.3125ZM44.3569 32.75L37.7328 39.0312C33.6969 42.875 27.8416 41.875 24.8178 36.8125C21.9734 32.0469 22.6909 25.3906 26.445 21.6875L37.105 11.1719C35.6188 10.4062 34.0172 10.0156 32.39 10.0156C29.9812 10 27.6366 10.875 25.625 12.5L16.4 20V55H20.0131L31.7237 68.0312C34.235 70.8281 38.1172 70.6094 40.4106 67.5469C41.1153 66.5938 41.5894 65.4844 41.8328 64.3281L44.0109 66.7656C46.5094 69.5625 50.4044 69.3594 52.6978 66.3125C53.2744 65.5469 53.6972 64.6562 53.9663 63.7344C56.4519 65.7656 59.8344 65.3438 61.9228 62.5625C64.2162 59.5156 64.0497 54.7656 61.5512 51.9688L44.3569 32.75ZM2.05 20C0.9225 20 0 21.125 0 22.5V55C0 57.7656 1.83219 60 4.1 60H8.2C10.4678 60 12.3 57.7656 12.3 55V20H2.05ZM6.15 50C6.69369 50 7.21512 50.2634 7.59957 50.7322C7.98402 51.2011 8.2 51.837 8.2 52.5C8.2 53.163 7.98402 53.7989 7.59957 54.2678C7.21512 54.7366 6.69369 55 6.15 55C5.60631 55 5.08488 54.7366 4.70043 54.2678C4.31598 53.7989 4.1 53.163 4.1 52.5C4.1 51.837 4.31598 51.2011 4.70043 50.7322C5.08488 50.2634 5.60631 50 6.15 50ZM69.7 20V55C69.7 57.7656 71.5322 60 73.8 60H77.9C80.1678 60 82 57.7656 82 55V22.5C82 21.125 81.0775 20 79.95 20H69.7ZM73.8 52.5C73.8 51.837 74.016 51.2011 74.4004 50.7322C74.7849 50.2634 75.3063 50 75.85 50C76.3937 50 76.9151 50.2634 77.2996 50.7322C77.684 51.2011 77.9 51.837 77.9 52.5C77.9 53.163 77.684 53.7989 77.2996 54.2678C76.9151 54.7366 76.3937 55 75.85 55C75.3063 55 74.7849 54.7366 74.4004 54.2678C74.016 53.7989 73.8 53.163 73.8 52.5Z" fill="white"/>
</svg>
