<svg width="80" height="82" viewBox="0 0 80 82" fill="none" xmlns="http://www.w3.org/2000/svg">
<path d="M33.6007 26.9817C37.1893 20.3828 38.984 17.0833 41.6667 17.0833C44.3493 17.0833 46.144 20.3828 49.7327 26.9817L50.6613 28.689C51.681 30.5642 52.191 31.5018 52.986 32.1205C53.781 32.7391 54.7713 32.9688 56.7517 33.428L58.5547 33.8462C65.5237 35.4625 69.0083 36.2706 69.8373 39.0032C70.6663 41.7355 68.2907 44.583 63.5397 50.2775L62.3107 51.7508C60.9603 53.3693 60.2853 54.1783 59.9817 55.1794C59.678 56.1802 59.78 57.2598 59.9843 59.4188L60.17 61.3844C60.8883 68.9824 61.2473 72.7814 59.077 74.4703C56.9067 76.1591 53.644 74.6192 47.119 71.5398L45.4307 70.743C43.5767 69.868 42.6493 69.4303 41.6667 69.4303C40.684 69.4303 39.7567 69.868 37.9027 70.743L36.2143 71.5398C29.6892 74.6192 26.4267 76.1591 24.2563 74.4703C22.0858 72.7814 22.445 68.9824 23.1633 61.3844L23.3491 59.4188C23.5532 57.2598 23.6553 56.1802 23.3516 55.1794C23.0479 54.1783 22.3729 53.3693 21.0228 51.7508L19.7936 50.2775C15.0425 44.583 12.667 41.7355 13.496 39.0032C14.325 36.2706 17.8096 35.4625 24.7787 33.8462L26.5817 33.428C28.5621 32.9688 29.5523 32.7391 30.3473 32.1205C31.1424 31.5018 31.6523 30.5642 32.6722 28.689L33.6007 26.9817Z" fill="white"/>
<path d="M16.2251 8.54373C16.325 8.18231 16.9509 8.18013 17.0533 8.54086C17.5206 10.1881 18.3872 12.6229 19.6976 13.957C21.008 15.2911 23.3892 16.1629 24.9994 16.6308C25.352 16.7332 25.3541 17.3748 25.0022 17.4797C23.3951 17.9587 21.0197 18.847 19.7182 20.1901C18.4166 21.5333 17.566 23.974 17.1096 25.6244C17.0096 25.9859 16.3837 25.988 16.2814 25.6273C15.814 23.9801 14.9475 21.5453 13.637 20.2112C12.3266 18.8771 9.94544 18.0053 8.33528 17.5374C7.98268 17.4349 7.98054 16.7934 8.33247 16.6885C9.93951 16.2095 12.3149 15.3212 13.6165 13.978C14.9181 12.6348 15.7686 10.1941 16.2251 8.54373Z" fill="white"/>
<path fill-rule="evenodd" clip-rule="evenodd" d="M63.3333 11.1042C64.714 11.1042 65.8333 12.2515 65.8333 13.6667V14.5209H66.6667C68.0473 14.5209 69.1667 15.6682 69.1667 17.0834C69.1667 18.4986 68.0473 19.6459 66.6667 19.6459H65.8333V20.5001C65.8333 21.9153 64.714 23.0626 63.3333 23.0626C61.9527 23.0626 60.8333 21.9153 60.8333 20.5001V19.6459H60C58.6193 19.6459 57.5 18.4986 57.5 17.0834C57.5 15.6682 58.6193 14.5209 60 14.5209H60.8333V13.6667C60.8333 12.2515 61.9527 11.1042 63.3333 11.1042Z" fill="white"/>
</svg>
